HIERARCHY
ROOT Hips
{
	OFFSET -3.958830 18.904000 13.208200
	CHANNELS 6 Xposition Yposition Zposition Zrotation Yrotation Xrotation 
	JOINT LHipJoint
	{
		OFFSET 0.000000 0.000000 0.000000
		CHANNELS 3 Zrotation Yrotation Xrotation
		JOINT LeftUpLeg
		{
			OFFSET 1.800000 -1.400000 0.085000
			CHANNELS 3 Zrotation Yrotation Xrotation
			JOINT LeftLeg
			{
				OFFSET 2.215000 -6.000000 0.000000
				CHANNELS 3 Zrotation Yrotation Xrotation
				JOINT LeftFoot
				{
					OFFSET 2.500000 -6.900000 0.000000
					CHANNELS 3 Zrotation Yrotation Xrotation
					JOINT LeftToeBase
					{
						OFFSET 0.200000 -0.500000 1.950000
						CHANNELS 3 Zrotation Yrotation Xrotation
						End Site
						{
							OFFSET 0.000000 0.000000 0.000000
						}
					}
				}
			}
		}
	}
	JOINT RHipJoint
	{
		OFFSET 0.000000 0.000000 0.000000
		CHANNELS 3 Zrotation Yrotation Xrotation
		JOINT RightUpLeg
		{
			OFFSET -1.800000 -1.400000 0.085000
			CHANNELS 3 Zrotation Yrotation Xrotation
			JOINT RightLeg
			{
				OFFSET -2.215000 -6.000000 0.000000
				CHANNELS 3 Zrotation Yrotation Xrotation
				JOINT RightFoot
				{
					OFFSET -2.500000 -6.900000 0.000000
					CHANNELS 3 Zrotation Yrotation Xrotation
					JOINT RightToeBase
					{
						OFFSET -0.200000 -0.500000 1.950000
						CHANNELS 3 Zrotation Yrotation Xrotation
						End Site
						{
							OFFSET 0.000000 0.000000 0.000000
						}
					}
				}
			}
		}
	}
	JOINT LowerBack
	{
		OFFSET 0.000000 0.000000 0.000000
		CHANNELS 3 Zrotation Yrotation Xrotation
		JOINT Spine
		{
			OFFSET -0.087000 1.940000 -0.288900
			CHANNELS 3 Zrotation Yrotation Xrotation
			JOINT Spine1
			{
				OFFSET 0.000000 1.950000 0.060000
				CHANNELS 3 Zrotation Yrotation Xrotation
				JOINT Neck
				{
					OFFSET 0.000000 0.000000 0.000000
					CHANNELS 3 Zrotation Yrotation Xrotation
					JOINT Neck1
					{
						OFFSET 0.000000 1.600000 0.340000
						CHANNELS 3 Zrotation Yrotation Xrotation
						JOINT Head
						{
							OFFSET 0.000000 1.667000 -0.240000
							CHANNELS 3 Zrotation Yrotation Xrotation
							End Site
							{
								OFFSET 0.000000 0.000000 0.000000
							}
						}
					}
				}
				JOINT LeftShoulder
				{
					OFFSET 0.000000 0.000000 0.000000
					CHANNELS 3 Zrotation Yrotation Xrotation
					JOINT LeftArm
					{
						OFFSET 2.700000 1.550000 -0.730000
						CHANNELS 3 Zrotation Yrotation Xrotation
						JOINT LeftForeArm
						{
							OFFSET 5.450000 0.000000 0.000000
							CHANNELS 3 Zrotation Yrotation Xrotation
							JOINT LeftHand
							{
								OFFSET 3.450000 0.000000 0.000000
								CHANNELS 3 Zrotation Yrotation Xrotation
								JOINT LeftHandIndex1
								{
									OFFSET 0.750000 0.000000 0.000000
									CHANNELS 3 Zrotation Yrotation Xrotation
									End Site
									{
										OFFSET 0.000000 0.000000 0.000000
									}
								}
							}
						}
					}
				}
				JOINT RightShoulder
				{
					OFFSET 0.000000 0.000000 0.000000
					CHANNELS 3 Zrotation Yrotation Xrotation
					JOINT RightArm
					{
						OFFSET -2.700000 1.550000 -0.730000
						CHANNELS 3 Zrotation Yrotation Xrotation
						JOINT RightForeArm
						{
							OFFSET -5.450000 0.000000 0.000000
							CHANNELS 3 Zrotation Yrotation Xrotation
							JOINT RightHand
							{
								OFFSET -3.450000 0.000000 0.000000
								CHANNELS 3 Zrotation Yrotation Xrotation
								JOINT RightHandIndex1
								{
									OFFSET -0.750000 0.000000 0.000000
									CHANNELS 3 Zrotation Yrotation Xrotation
									End Site
									{
										OFFSET 0.000000 0.000000 0.000000
									}
								}
							}
						}
					}
				}
			}
		}
	}
}
MOTION
Frames: 11
Frame Time: 0.016667
-1.360200 16.066520 -3.805470 7.565463 -3.101312 -19.708272 -15.178370 11.453245 4.828276 31.465251 -7.708539 -19.678663 -25.359883 22.448391 46.197022 0.859953 12.026405 0.090187 1.129990 1.116870 0.808020 18.641610 -9.364171 2.730748 -26.683693 -0.696861 -40.010450 -12.407452 -9.602451 68.765666 -2.199294 -10.108651 0.568668 0.457550 -0.339160 0.490120 -4.152635 -2.225953 -8.960249 34.072477 -19.711556 48.844801 -7.644564 -8.908454 13.919335 3.310085 -6.462858 -16.613557 -25.514811 9.084617 59.230539 -4.617810 1.016850 -37.005950 -24.535261 -44.088634 5.977668 -13.210927 -31.252372 -6.759371 -161.374937 -58.142153 131.431548 -3.083073 3.205760 1.047170 -0.420760 0.864620 0.254610 18.611901 42.263696 10.479755 35.260340 20.447128 -18.792101 88.127010 52.587703 28.387135 2.072879 -1.741070 0.214720 0.317700 -0.278660 -0.107140 
-1.346890 16.089730 -3.735510 7.698616 -3.622070 -20.618517 -15.092330 11.497991 4.646079 31.020510 -7.524027 -17.467794 -24.778801 22.435063 46.202144 0.873714 11.985450 0.103378 1.145880 1.146730 0.799290 18.697284 -9.660718 2.597356 -26.508788 -1.201081 -38.890439 -13.263810 -8.972345 68.275369 -2.182819 -10.033552 0.592583 0.475050 -0.333800 0.488780 -4.340849 -1.839606 -8.813009 35.072614 -19.471959 46.001488 -7.961796 -9.618485 15.647771 2.669892 -6.452051 -16.240129 -25.026845 8.588463 58.046771 -3.620260 1.074650 -37.121870 -21.880225 -44.402513 6.434729 -13.546612 -32.299580 -6.538605 -166.650366 -60.185734 141.749786 -3.078830 3.185841 1.028860 -0.413950 0.854320 0.260540 17.320408 41.715002 10.354912 36.551033 21.346138 -18.525173 84.294531 54.169807 27.716038 2.063124 -1.734516 0.225600 0.311040 -0.282540 -0.099900 
-1.337160 16.129110 -3.649990 7.654961 -3.843602 -21.733119 -14.997770 11.603698 4.453608 30.445341 -7.463147 -15.147827 -23.701905 22.171670 46.392642 0.864512 11.936967 0.142585 1.120260 1.124350 0.779730 18.746171 -10.054206 2.381655 -26.123216 -1.988184 -37.108492 -14.491251 -8.046322 67.218152 -2.140208 -9.882092 0.647108 0.474640 -0.300340 0.474570 -4.526878 -1.452251 -8.628268 35.858805 -18.983486 42.799663 -8.204460 -10.288977 17.317524 2.030889 -6.185425 -15.759166 -23.734224 7.590525 57.132767 -3.518650 1.178190 -36.743190 -19.451904 -44.680959 6.726469 -13.129872 -33.146352 -6.027381 -173.081297 -62.062487 153.718551 -3.114574 3.160387 1.016390 -0.387690 0.827380 0.262470 16.245807 40.987060 10.399158 38.653727 22.141199 -18.196308 80.329166 56.079417 27.123574 2.050329 -1.706621 0.199110 0.332820 -0.270140 -0.102920 
-1.321520 16.182640 -3.556850 7.351151 -3.796274 -22.775258 -14.885734 11.714086 4.213794 29.814571 -7.156445 -12.801853 -22.064351 21.623913 46.467052 0.870841 11.807431 0.234244 1.084850 1.087050 0.726320 18.810154 -10.493858 2.168825 -25.870120 -2.716342 -34.989172 -15.270686 -7.432328 65.994117 -2.082211 -9.751204 0.704157 0.466140 -0.243140 0.462820 -4.756678 -0.978798 -8.410878 37.541214 -18.360458 38.754610 -8.703557 -10.687000 18.781077 1.495877 -6.202229 -15.317091 -23.346414 6.126244 55.764087 -3.045130 0.187340 -34.718690 -17.977184 -44.646722 6.908288 -12.935510 -34.514162 -4.687394 179.580298 -64.330356 167.112126 -3.172951 3.177553 0.973430 -0.349610 0.777950 0.293580 15.906454 40.183013 10.793109 40.224503 21.828034 -17.684310 77.471802 58.062075 27.162168 2.041611 -1.728856 0.177480 0.336400 -0.273020 -0.080560 
-1.308220 16.242960 -3.451710 6.945579 -3.636939 -23.548216 -14.778650 11.822993 3.974858 29.232659 -6.588123 -10.698099 -20.274590 21.040387 46.447458 0.904299 11.600749 0.341778 1.061700 1.097800 0.686540 18.872348 -10.923362 1.967171 -25.821078 -3.274578 -32.607256 -15.588220 -7.067313 64.520666 -2.011495 -9.583919 0.793628 0.465290 -0.209690 0.438390 -4.977875 -0.504496 -8.189322 39.067752 -17.074383 33.932009 -9.194135 -10.715702 20.093368 1.221864 -5.904938 -14.792671 -22.260579 4.353165 55.149181 -3.906930 -0.711810 -32.273610 -16.334934 -44.203522 7.094887 -13.450434 -36.201402 -2.805393 174.190844 -66.762700 176.516189 -3.234247 3.181661 0.885880 -0.305120 0.740430 0.324790 14.842652 39.252168 10.972676 42.651043 21.940886 -17.021024 72.360211 58.654181 25.054291 2.037044 -1.762693 0.190180 0.333950 -0.299180 -0.043710 
-1.293640 16.306080 -3.339040 6.308217 -3.703211 -24.056181 -14.652220 11.835316 3.693483 28.780415 -5.856959 -8.614060 -18.503575 20.375003 46.037995 0.887431 11.393021 0.445091 1.021760 1.070460 0.625500 18.971843 -11.360207 1.808827 -25.482711 -3.592951 -30.634972 -15.951466 -6.718536 63.391429 -1.939089 -9.514675 0.841437 0.464090 -0.138870 0.445450 -5.283940 0.181955 -7.940604 40.588077 -15.396408 28.334825 -9.965360 -10.612051 21.961606 0.629734 -5.142046 -14.246898 -19.994334 2.645623 54.074472 -4.387140 -0.995910 -28.481830 -13.343876 -43.872495 7.559590 -14.103577 -37.756125 -0.670754 163.866669 -67.627722 -169.180559 -3.363469 3.225437 0.794690 -0.219650 0.669840 0.348240 13.043779 37.939306 10.939781 46.234133 22.525126 -16.079433 67.969517 59.436546 23.272592 2.033993 -1.815881 0.185980 0.312280 -0.292220 -0.019080 
-1.277910 16.376110 -3.227820 5.655051 -3.715786 -24.606998 -14.565993 11.904322 3.476482 28.482916 -5.295987 -6.871795 -16.857303 19.787649 45.828658 0.834484 11.279475 0.523371 0.945260 0.971220 0.575570 19.030968 -11.738649 1.611851 -24.911825 -3.946496 -28.351681 -16.385979 -6.299636 61.960564 -1.847214 -9.391044 0.897292 0.440600 -0.053170 0.445050 -5.481730 0.650752 -7.682974 41.235051 -13.453737 23.403704 -10.086789 -10.363368 23.041804 0.024578 -4.137945 -13.538491 -17.303507 0.998921 52.861718 -5.078870 -1.012210 -25.159070 -9.419861 -42.934438 7.741012 -16.012690 -40.229217 2.363077 152.046868 -68.094865 -154.250845 -3.543546 3.153124 0.739770 -0.130580 0.581040 0.339300 10.290560 36.089554 10.779264 50.545664 23.097296 -14.662224 65.832242 60.118673 22.521327 2.070798 -1.823664 0.136170 0.314500 -0.247800 -0.029130 
-1.263100 16.449840 -3.110870 5.003206 -3.669772 -25.363271 -14.518649 12.103949 3.282705 28.311926 -4.625602 -4.949877 -15.035868 19.135588 45.508371 0.814258 11.160368 0.627863 0.860260 0.836820 0.515260 19.038979 -12.045674 1.400482 -24.420471 -4.163806 -25.510820 -16.633326 -5.873467 60.220827 -1.746701 -9.229957 0.975794 0.384030 0.043790 0.468280 -5.554075 0.808281 -7.417572 41.208566 -11.470598 19.491624 -9.295069 -10.149197 23.332425 -0.660488 -3.531157 -12.987736 -15.749995 -0.437778 51.200236 -5.825430 -1.425220 -21.441170 -6.624783 -41.587420 7.481746 -17.959458 -43.147615 6.462951 141.697372 -67.647303 -140.255316 -3.767824 2.965730 0.684150 -0.040050 0.485860 0.343550 8.751822 34.219052 11.043389 53.140244 22.196645 -12.902343 69.569862 61.766003 25.607630 2.149292 -1.837551 0.098820 0.291710 -0.205980 -0.030000 
-1.242860 16.520830 -2.974750 4.184933 -2.875370 -26.322508 -14.492198 12.334673 3.041540 28.134637 -3.915105 -3.093229 -12.581545 18.230633 45.423806 0.784196 10.991910 0.727790 0.733100 0.693620 0.419170 19.035373 -12.313991 1.192070 -24.837543 -4.505572 -21.849396 -15.886820 -6.204257 58.826934 -1.625049 -9.170892 1.005921 0.331780 0.146010 0.478870 -5.586825 0.868743 -7.122558 40.505910 -9.556884 15.260788 -8.360240 -10.231537 23.886810 -1.501474 -2.434952 -12.445025 -13.060056 -2.198482 48.925633 -6.928350 -1.392060 -16.755250 -3.189532 -40.200395 7.181195 -20.029300 -45.818327 10.559040 135.486788 -65.601987 -129.920366 -4.016744 2.712124 0.572660 0.075780 0.361830 0.314090 6.838298 32.125735 11.152207 55.971523 21.588022 -10.840954 71.432554 62.902280 27.597303 2.215636 -1.864952 0.064770 0.251640 -0.134630 -0.023170 
-1.226820 16.557200 -2.834150 3.507978 -0.567490 -27.568237 -14.522072 12.635837 2.757379 27.702001 -3.160088 -1.911842 -9.371392 17.002643 45.924278 0.737409 10.855097 0.846418 0.602030 0.530790 0.300930 18.995455 -12.437882 1.008072 -26.829736 -4.914892 -17.166462 -13.597997 -7.692324 57.685552 -1.507035 -9.280874 1.002180 0.286350 0.313820 0.510350 -5.509726 0.594884 -6.830941 37.850824 -7.715079 11.488206 -6.470821 -10.548465 24.145752 -2.846510 -1.030470 -11.567628 -9.519801 -4.324227 45.237743 -7.854020 -1.474620 -11.200220 0.284395 -38.058299 6.145417 -22.304442 -49.202771 15.666862 131.900072 -62.905370 -120.855512 -4.252363 2.503350 0.433890 0.243980 0.194880 0.312980 5.758126 29.404621 10.961566 57.750282 21.827309 -7.223603 75.342497 64.935812 31.999281 2.283807 -1.879621 0.014140 0.220930 -0.057910 -0.006190 
-1.207350 16.569950 -2.704150 2.879580 1.417154 -28.535196 -14.574168 12.900384 2.505986 27.586792 -2.237881 -0.930154 -6.561204 15.909583 45.866860 0.684132 10.758903 0.980143 0.436490 0.301700 0.162510 18.934034 -12.472701 0.929166 -28.580281 -4.782013 -12.999817 -11.239030 -9.149143 56.713900 -1.385257 -9.466205 0.984097 0.220820 0.524960 0.537170 -5.379726 0.318216 -6.603974 35.207029 -5.805484 8.255421 -5.047384 -10.245007 24.089719 -3.932143 0.382970 -10.993069 -6.111002 -6.513069 41.398329 -8.545020 -2.164210 -5.046870 2.321962 -35.987530 4.945233 -22.627160 -52.157470 20.022836 127.260810 -58.740170 -106.301745 -4.485687 2.170936 0.298890 0.428060 -0.007240 0.313270 5.535574 26.989597 11.003897 58.454683 21.584441 -3.280955 78.625833 68.280452 37.232731 2.373080 -1.795902 -0.071350 0.211230 0.041890 0.007170 
